<mxfile host="Electron" modified="2021-10-06T02:39:34.363Z" agent="5.0 (Windows NT 10.0; Win64; x64) AppleWebKit/537.36 (KHTML, like Gecko) draw.io/13.9.9 Chrome/85.0.4183.121 Electron/10.1.5 Safari/537.36" etag="tCriKqglREUSZlphwn-3" version="13.9.9" type="device">
  <diagram id="eQwurLcD6YKOo8-gMQfG" name="Page-1">
    <mxGraphModel dx="2255" dy="806" grid="1" gridSize="10" guides="1" tooltips="1" connect="1" arrows="1" fold="1" page="1" pageScale="1" pageWidth="1169" pageHeight="827" math="0" shadow="0">
      <root>
        <mxCell id="0" />
        <mxCell id="1" parent="0" />
        <mxCell id="hhvbmtpyPsZvsXLc2sTJ-3" value="save and load &lt;br&gt;code to 3D element" style="rounded=0;whiteSpace=wrap;html=1;fontFamily=Roboto;fillColor=#ffe6cc;strokeColor=#d79b00;" parent="1" vertex="1">
          <mxGeometry x="-80" y="80" width="120" height="60" as="geometry" />
        </mxCell>
        <mxCell id="hhvbmtpyPsZvsXLc2sTJ-4" value="Function to display message" style="rounded=0;whiteSpace=wrap;html=1;fontFamily=Roboto;fillColor=#ffe6cc;strokeColor=#d79b00;" parent="1" vertex="1">
          <mxGeometry x="-80" y="220" width="120" height="60" as="geometry" />
        </mxCell>
        <mxCell id="hhvbmtpyPsZvsXLc2sTJ-7" value="Add jump &lt;br&gt;feature" style="rounded=0;whiteSpace=wrap;html=1;fontFamily=Roboto;fillColor=#dae8fc;strokeColor=#6c8ebf;" parent="1" vertex="1">
          <mxGeometry x="521" y="150" width="120" height="60" as="geometry" />
        </mxCell>
        <mxCell id="hhvbmtpyPsZvsXLc2sTJ-8" value="Add physics to &lt;br&gt;scene elements" style="rounded=0;whiteSpace=wrap;html=1;fontFamily=Roboto;fillColor=#dae8fc;strokeColor=#6c8ebf;" parent="1" vertex="1">
          <mxGeometry x="521" y="80" width="120" height="60" as="geometry" />
        </mxCell>
        <mxCell id="hhvbmtpyPsZvsXLc2sTJ-9" value="Create new realm feature" style="rounded=0;whiteSpace=wrap;html=1;fontFamily=Roboto;fillColor=#dae8fc;strokeColor=#6c8ebf;" parent="1" vertex="1">
          <mxGeometry x="521" y="290" width="120" height="60" as="geometry" />
        </mxCell>
        <mxCell id="hhvbmtpyPsZvsXLc2sTJ-10" value="Keybinds for &lt;br&gt;edit actions" style="rounded=0;whiteSpace=wrap;html=1;fontFamily=Roboto;fillColor=#d5e8d4;strokeColor=#82b366;" parent="1" vertex="1">
          <mxGeometry x="320" y="80" width="120" height="60" as="geometry" />
        </mxCell>
        <mxCell id="hhvbmtpyPsZvsXLc2sTJ-11" value="Center rotation point at center of bounding box" style="rounded=0;whiteSpace=wrap;html=1;fontFamily=Roboto;fillColor=#d5e8d4;strokeColor=#82b366;" parent="1" vertex="1">
          <mxGeometry x="320" y="220" width="120" height="60" as="geometry" />
        </mxCell>
        <mxCell id="hhvbmtpyPsZvsXLc2sTJ-12" value="Add predefined scale for each library component" style="rounded=0;whiteSpace=wrap;html=1;fontFamily=Roboto;fillColor=#d5e8d4;strokeColor=#82b366;" parent="1" vertex="1">
          <mxGeometry x="320" y="150" width="120" height="60" as="geometry" />
        </mxCell>
        <mxCell id="hhvbmtpyPsZvsXLc2sTJ-13" value="Add horizontal snap to flat objects like city roads" style="rounded=0;whiteSpace=wrap;html=1;fontFamily=Roboto;fillColor=#d5e8d4;strokeColor=#82b366;" parent="1" vertex="1">
          <mxGeometry x="320" y="290" width="120" height="60" as="geometry" />
        </mxCell>
        <mxCell id="hhvbmtpyPsZvsXLc2sTJ-14" value="Add portal component" style="rounded=0;whiteSpace=wrap;html=1;fontFamily=Roboto;fillColor=#d5e8d4;strokeColor=#82b366;" parent="1" vertex="1">
          <mxGeometry x="320" y="360" width="120" height="60" as="geometry" />
        </mxCell>
        <mxCell id="hhvbmtpyPsZvsXLc2sTJ-15" value="move mesh cache to realm database" style="rounded=0;whiteSpace=wrap;html=1;fontFamily=Roboto;fillColor=#d5e8d4;strokeColor=#82b366;" parent="1" vertex="1">
          <mxGeometry x="320" y="430" width="120" height="60" as="geometry" />
        </mxCell>
        <mxCell id="hhvbmtpyPsZvsXLc2sTJ-16" value="fix mesh template when receiving network update" style="rounded=0;whiteSpace=wrap;html=1;fontFamily=Roboto;fillColor=#e1d5e7;strokeColor=#9673a6;" parent="1" vertex="1">
          <mxGeometry x="720" y="290" width="120" height="60" as="geometry" />
        </mxCell>
        <mxCell id="hhvbmtpyPsZvsXLc2sTJ-17" value="do not propagate events to the sender" style="rounded=0;whiteSpace=wrap;html=1;fontFamily=Roboto;fillColor=#e1d5e7;strokeColor=#9673a6;" parent="1" vertex="1">
          <mxGeometry x="720" y="430" width="120" height="60" as="geometry" />
        </mxCell>
        <mxCell id="hhvbmtpyPsZvsXLc2sTJ-18" value="wait for the full state of the realm &lt;br&gt;after join" style="rounded=0;whiteSpace=wrap;html=1;fontFamily=Roboto;fillColor=#e1d5e7;strokeColor=#9673a6;" parent="1" vertex="1">
          <mxGeometry x="720" y="80" width="120" height="60" as="geometry" />
        </mxCell>
        <mxCell id="hhvbmtpyPsZvsXLc2sTJ-19" value="send player position updates" style="rounded=0;whiteSpace=wrap;html=1;fontFamily=Roboto;fillColor=#e1d5e7;strokeColor=#9673a6;" parent="1" vertex="1">
          <mxGeometry x="720" y="220" width="120" height="60" as="geometry" />
        </mxCell>
        <mxCell id="hhvbmtpyPsZvsXLc2sTJ-20" value="when sharing disable join button" style="rounded=0;whiteSpace=wrap;html=1;fontFamily=Roboto;fillColor=#e1d5e7;strokeColor=#9673a6;" parent="1" vertex="1">
          <mxGeometry x="720" y="360" width="120" height="60" as="geometry" />
        </mxCell>
        <mxCell id="hhvbmtpyPsZvsXLc2sTJ-21" value="Enable VR &lt;br&gt;experience" style="rounded=0;whiteSpace=wrap;html=1;fontFamily=Roboto;fillColor=#dae8fc;strokeColor=#6c8ebf;" parent="1" vertex="1">
          <mxGeometry x="520" y="500" width="120" height="60" as="geometry" />
        </mxCell>
        <mxCell id="hhvbmtpyPsZvsXLc2sTJ-22" value="prevent movement outside the box" style="rounded=0;whiteSpace=wrap;html=1;fontFamily=Roboto;fillColor=#dae8fc;strokeColor=#6c8ebf;" parent="1" vertex="1">
          <mxGeometry x="520" y="570" width="120" height="60" as="geometry" />
        </mxCell>
        <mxCell id="hhvbmtpyPsZvsXLc2sTJ-23" value="add procedural skybox with kenney background-elements" style="rounded=0;whiteSpace=wrap;html=1;fontFamily=Roboto;fillColor=#dae8fc;strokeColor=#6c8ebf;" parent="1" vertex="1">
          <mxGeometry x="520" y="640" width="121" height="60" as="geometry" />
        </mxCell>
        <mxCell id="hhvbmtpyPsZvsXLc2sTJ-24" value="Add key value set of data to 3D elements" style="rounded=0;whiteSpace=wrap;html=1;fontFamily=Roboto;fillColor=#ffe6cc;strokeColor=#d79b00;" parent="1" vertex="1">
          <mxGeometry x="-80" y="590" width="120" height="60" as="geometry" />
        </mxCell>
        <mxCell id="hhvbmtpyPsZvsXLc2sTJ-25" value="Add colision event to 3D element" style="rounded=0;whiteSpace=wrap;html=1;fontFamily=Roboto;fillColor=#ffe6cc;strokeColor=#d79b00;" parent="1" vertex="1">
          <mxGeometry x="-80" y="520" width="120" height="60" as="geometry" />
        </mxCell>
        <mxCell id="hhvbmtpyPsZvsXLc2sTJ-27" value="multiplayer" style="text;html=1;strokeColor=#9673a6;fillColor=#e1d5e7;align=center;verticalAlign=middle;whiteSpace=wrap;rounded=0;fontFamily=Roboto;" parent="1" vertex="1">
          <mxGeometry x="720" y="40" width="120" height="20" as="geometry" />
        </mxCell>
        <mxCell id="hhvbmtpyPsZvsXLc2sTJ-28" value="coding" style="text;html=1;strokeColor=#d79b00;fillColor=#ffe6cc;align=center;verticalAlign=middle;whiteSpace=wrap;rounded=0;fontFamily=Roboto;" parent="1" vertex="1">
          <mxGeometry x="-80" y="40" width="120" height="20" as="geometry" />
        </mxCell>
        <mxCell id="hhvbmtpyPsZvsXLc2sTJ-29" value="editor" style="text;html=1;strokeColor=#82b366;fillColor=#d5e8d4;align=center;verticalAlign=middle;whiteSpace=wrap;rounded=0;fontFamily=Roboto;" parent="1" vertex="1">
          <mxGeometry x="320" y="40" width="120" height="20" as="geometry" />
        </mxCell>
        <mxCell id="hhvbmtpyPsZvsXLc2sTJ-31" value="Create executable plugins" style="rounded=0;whiteSpace=wrap;html=1;fontFamily=Roboto;fillColor=#fff2cc;strokeColor=#d6b656;" parent="1" vertex="1">
          <mxGeometry x="120" y="80" width="120" height="60" as="geometry" />
        </mxCell>
        <mxCell id="hhvbmtpyPsZvsXLc2sTJ-32" value="Expose create scene element to plugin" style="rounded=0;whiteSpace=wrap;html=1;fontFamily=Roboto;fillColor=#fff2cc;strokeColor=#d6b656;" parent="1" vertex="1">
          <mxGeometry x="120" y="290" width="120" height="60" as="geometry" />
        </mxCell>
        <mxCell id="hhvbmtpyPsZvsXLc2sTJ-33" value="Expose show Message to plugin" style="rounded=0;whiteSpace=wrap;html=1;fontFamily=Roboto;fillColor=#fff2cc;strokeColor=#d6b656;" parent="1" vertex="1">
          <mxGeometry x="120" y="150" width="120" height="60" as="geometry" />
        </mxCell>
        <mxCell id="hhvbmtpyPsZvsXLc2sTJ-34" value="Expose wait for choosing point to plugin" style="rounded=0;whiteSpace=wrap;html=1;fontFamily=Roboto;fillColor=#fff2cc;strokeColor=#d6b656;" parent="1" vertex="1">
          <mxGeometry x="120" y="220" width="120" height="60" as="geometry" />
        </mxCell>
        <mxCell id="hhvbmtpyPsZvsXLc2sTJ-35" value="plugins" style="text;html=1;strokeColor=#d6b656;fillColor=#fff2cc;align=center;verticalAlign=middle;whiteSpace=wrap;rounded=0;fontFamily=Roboto;" parent="1" vertex="1">
          <mxGeometry x="120" y="40" width="120" height="20" as="geometry" />
        </mxCell>
        <mxCell id="hhvbmtpyPsZvsXLc2sTJ-36" value="Create command line that can execute the same commands as plugins" style="rounded=0;whiteSpace=wrap;html=1;fontFamily=Roboto;fillColor=#fff2cc;strokeColor=#d6b656;" parent="1" vertex="1">
          <mxGeometry x="120" y="360" width="120" height="60" as="geometry" />
        </mxCell>
        <mxCell id="hhvbmtpyPsZvsXLc2sTJ-37" value="create library available only for the current realm" style="rounded=0;whiteSpace=wrap;html=1;fontFamily=Roboto;fillColor=#d5e8d4;strokeColor=#82b366;" parent="1" vertex="1">
          <mxGeometry x="320" y="570" width="120" height="60" as="geometry" />
        </mxCell>
        <mxCell id="hhvbmtpyPsZvsXLc2sTJ-38" value="Import 3D files" style="rounded=0;whiteSpace=wrap;html=1;fontFamily=Roboto;fillColor=#d5e8d4;strokeColor=#82b366;" parent="1" vertex="1">
          <mxGeometry x="320" y="500" width="120" height="60" as="geometry" />
        </mxCell>
        <mxCell id="hhvbmtpyPsZvsXLc2sTJ-39" value="add user name to client updates" style="rounded=0;whiteSpace=wrap;html=1;fontFamily=Roboto;fillColor=#e1d5e7;strokeColor=#9673a6;" parent="1" vertex="1">
          <mxGeometry x="720" y="500" width="120" height="60" as="geometry" />
        </mxCell>
        <mxCell id="hhvbmtpyPsZvsXLc2sTJ-40" value="auto generate user name" style="rounded=0;whiteSpace=wrap;html=1;fontFamily=Roboto;fillColor=#e1d5e7;strokeColor=#9673a6;" parent="1" vertex="1">
          <mxGeometry x="720" y="640" width="120" height="60" as="geometry" />
        </mxCell>
        <mxCell id="hhvbmtpyPsZvsXLc2sTJ-41" value="if user name is duplicated add (1) and so on to the end" style="rounded=0;whiteSpace=wrap;html=1;fontFamily=Roboto;fillColor=#e1d5e7;strokeColor=#9673a6;" parent="1" vertex="1">
          <mxGeometry x="720" y="570" width="120" height="60" as="geometry" />
        </mxCell>
        <mxCell id="hhvbmtpyPsZvsXLc2sTJ-42" value="Allow to change &lt;br&gt;the name&amp;nbsp;" style="rounded=0;whiteSpace=wrap;html=1;fontFamily=Roboto;fillColor=#dae8fc;strokeColor=#6c8ebf;" parent="1" vertex="1">
          <mxGeometry x="521" y="430" width="120" height="60" as="geometry" />
        </mxCell>
        <mxCell id="hhvbmtpyPsZvsXLc2sTJ-43" value="user experience" style="text;html=1;strokeColor=#6c8ebf;fillColor=#dae8fc;align=center;verticalAlign=middle;whiteSpace=wrap;rounded=0;fontFamily=Roboto;" parent="1" vertex="1">
          <mxGeometry x="521" y="40" width="121" height="20" as="geometry" />
        </mxCell>
        <mxCell id="hhvbmtpyPsZvsXLc2sTJ-44" value="show other users names above the character" style="rounded=0;whiteSpace=wrap;html=1;fontFamily=Roboto;fillColor=#dae8fc;strokeColor=#6c8ebf;" parent="1" vertex="1">
          <mxGeometry x="521" y="360" width="120" height="60" as="geometry" />
        </mxCell>
        <mxCell id="hhvbmtpyPsZvsXLc2sTJ-47" value="Add inventory concept" style="rounded=0;whiteSpace=wrap;html=1;fontFamily=Roboto;fillColor=#ffe6cc;strokeColor=#d79b00;" parent="1" vertex="1">
          <mxGeometry x="-80" y="660" width="120" height="60" as="geometry" />
        </mxCell>
        <mxCell id="hhvbmtpyPsZvsXLc2sTJ-48" value="Add use( ) function" style="rounded=0;whiteSpace=wrap;html=1;fontFamily=Roboto;fillColor=#ffe6cc;strokeColor=#d79b00;" parent="1" vertex="1">
          <mxGeometry x="-80" y="730" width="120" height="60" as="geometry" />
        </mxCell>
        <mxCell id="hhvbmtpyPsZvsXLc2sTJ-56" value="click event to &lt;br&gt;trigger code" style="rounded=0;whiteSpace=wrap;html=1;fontFamily=Roboto;fillColor=#ffe6cc;strokeColor=#d79b00;" parent="1" vertex="1">
          <mxGeometry x="-80" y="150" width="120" height="60" as="geometry" />
        </mxCell>
        <mxCell id="hhvbmtpyPsZvsXLc2sTJ-59" value="" style="verticalLabelPosition=bottom;verticalAlign=top;html=1;shape=mxgraph.basic.tick;fontFamily=Roboto;fillColor=#008a00;strokeColor=#005700;fontColor=#ffffff;" parent="1" vertex="1">
          <mxGeometry x="30.000000000000227" y="70" width="26.25" height="30" as="geometry" />
        </mxCell>
        <mxCell id="dsrpRAJwARRAVhw4RFIG-1" value="deployment" style="text;html=1;strokeColor=#666666;fillColor=#f5f5f5;align=center;verticalAlign=middle;whiteSpace=wrap;rounded=0;fontFamily=Roboto;fontColor=#333333;" parent="1" vertex="1">
          <mxGeometry x="920" y="40" width="120" height="20" as="geometry" />
        </mxCell>
        <mxCell id="dsrpRAJwARRAVhw4RFIG-2" value="setup CI/CD to smallflatworld.com&amp;nbsp;" style="rounded=0;whiteSpace=wrap;html=1;fontFamily=Roboto;fillColor=#f5f5f5;strokeColor=#666666;fontColor=#333333;" parent="1" vertex="1">
          <mxGeometry x="920" y="80" width="120" height="60" as="geometry" />
        </mxCell>
        <mxCell id="dsrpRAJwARRAVhw4RFIG-3" value="setup lets encrypt certificate" style="rounded=0;whiteSpace=wrap;html=1;fontFamily=Roboto;fillColor=#f5f5f5;strokeColor=#666666;fontColor=#333333;" parent="1" vertex="1">
          <mxGeometry x="920" y="150" width="120" height="60" as="geometry" />
        </mxCell>
        <mxCell id="dsrpRAJwARRAVhw4RFIG-4" value="" style="verticalLabelPosition=bottom;verticalAlign=top;html=1;shape=mxgraph.basic.tick;fontFamily=Roboto;fillColor=#008a00;strokeColor=#005700;fontColor=#ffffff;" parent="1" vertex="1">
          <mxGeometry x="1030.0000000000002" y="70" width="26.25" height="30" as="geometry" />
        </mxCell>
        <mxCell id="dsrpRAJwARRAVhw4RFIG-5" value="add mixpanel.com&lt;br&gt;tracking" style="rounded=0;whiteSpace=wrap;html=1;fontFamily=Roboto;fillColor=#f5f5f5;strokeColor=#666666;fontColor=#333333;" parent="1" vertex="1">
          <mxGeometry x="920" y="220" width="120" height="60" as="geometry" />
        </mxCell>
        <mxCell id="dsrpRAJwARRAVhw4RFIG-6" value="loop code to update element state, e.g. move" style="rounded=0;whiteSpace=wrap;html=1;fontFamily=Roboto;fillColor=#ffe6cc;strokeColor=#d79b00;" parent="1" vertex="1">
          <mxGeometry x="-80" y="290" width="120" height="60" as="geometry" />
        </mxCell>
        <mxCell id="dsrpRAJwARRAVhw4RFIG-7" value="notify if change selection to loose code" style="rounded=0;whiteSpace=wrap;html=1;fontFamily=Roboto;fillColor=#ffe6cc;strokeColor=#d79b00;" parent="1" vertex="1">
          <mxGeometry x="-80" y="370" width="120" height="60" as="geometry" />
        </mxCell>
        <mxCell id="dsrpRAJwARRAVhw4RFIG-8" value="Function to wait for choosing a point&amp;nbsp;" style="rounded=0;whiteSpace=wrap;html=1;fontFamily=Roboto;fillColor=#ffe6cc;strokeColor=#d79b00;" parent="1" vertex="1">
          <mxGeometry x="-80" y="450" width="120" height="60" as="geometry" />
        </mxCell>
        <mxCell id="dsrpRAJwARRAVhw4RFIG-9" value="synchronize code updates" style="rounded=0;whiteSpace=wrap;html=1;fontFamily=Roboto;fillColor=#e1d5e7;strokeColor=#9673a6;" parent="1" vertex="1">
          <mxGeometry x="720" y="150" width="120" height="60" as="geometry" />
        </mxCell>
        <mxCell id="dsrpRAJwARRAVhw4RFIG-10" value="" style="verticalLabelPosition=bottom;verticalAlign=top;html=1;shape=mxgraph.basic.tick;fontFamily=Roboto;fillColor=#008a00;strokeColor=#005700;fontColor=#ffffff;" parent="1" vertex="1">
          <mxGeometry x="30.000000000000227" y="150" width="26.25" height="30" as="geometry" />
        </mxCell>
        <mxCell id="dsrpRAJwARRAVhw4RFIG-11" value="" style="verticalLabelPosition=bottom;verticalAlign=top;html=1;shape=mxgraph.basic.tick;fontFamily=Roboto;fillColor=#008a00;strokeColor=#005700;fontColor=#ffffff;" parent="1" vertex="1">
          <mxGeometry x="30.000000000000227" y="230" width="26.25" height="30" as="geometry" />
        </mxCell>
        <mxCell id="fmJ3L91N9C36IfXdmLS--1" value="" style="verticalLabelPosition=bottom;verticalAlign=top;html=1;shape=mxgraph.basic.tick;fontFamily=Roboto;fillColor=#008a00;strokeColor=#005700;fontColor=#ffffff;" vertex="1" parent="1">
          <mxGeometry x="630.0000000000002" y="70" width="26.25" height="30" as="geometry" />
        </mxCell>
        <mxCell id="fmJ3L91N9C36IfXdmLS--2" value="" style="verticalLabelPosition=bottom;verticalAlign=top;html=1;shape=mxgraph.basic.tick;fontFamily=Roboto;fillColor=#008a00;strokeColor=#005700;fontColor=#ffffff;" vertex="1" parent="1">
          <mxGeometry x="630.0000000000002" y="140" width="26.25" height="30" as="geometry" />
        </mxCell>
        <mxCell id="fmJ3L91N9C36IfXdmLS--3" value="Adjust camera to see front of character" style="rounded=0;whiteSpace=wrap;html=1;fontFamily=Roboto;fillColor=#dae8fc;strokeColor=#6c8ebf;" vertex="1" parent="1">
          <mxGeometry x="520" y="220" width="120" height="60" as="geometry" />
        </mxCell>
      </root>
    </mxGraphModel>
  </diagram>
</mxfile>
